<mxfile host="app.diagrams.net" agent="Mozilla/5.0 (Windows NT 10.0; Win64; x64) AppleWebKit/537.36 (KHTML, like Gecko) Chrome/137.0.0.0 Safari/537.36" version="27.1.5">
  <diagram name="Hierarchical Exam Creation Flow" id="RCbeI4HwJGWfdUaFttje">
    <mxGraphModel dx="1544" dy="1102" grid="1" gridSize="10" guides="1" tooltips="1" connect="1" arrows="1" fold="1" page="1" pageScale="1" pageWidth="850" pageHeight="1100" math="0" shadow="0">
      <root>
        <mxCell id="0" />
        <mxCell id="1" parent="0" />
        <mxCell id="bh20omnAj4xGS9AuPNmo-42" value="Lumen Hierarchical Exam Creation Flow" style="text;html=1;fontSize=18;fontStyle=1;strokeColor=none;fillColor=none;align=center;" vertex="1" parent="1">
          <mxGeometry x="400" y="10" width="500" height="40" as="geometry" />
        </mxCell>
        <mxCell id="bh20omnAj4xGS9AuPNmo-43" value="carotid.json (template)" style="shape=document;whiteSpace=wrap;fillColor=#dae8fc;" vertex="1" parent="1">
          <mxGeometry x="500" y="80" width="180" height="60" as="geometry" />
        </mxCell>
        <mxCell id="bh20omnAj4xGS9AuPNmo-44" value="Template Registry" style="shape=cube;whiteSpace=wrap;fillColor=#f5f5f5;" vertex="1" parent="1">
          <mxGeometry x="500" y="160" width="180" height="60" as="geometry" />
        </mxCell>
        <mxCell id="bh20omnAj4xGS9AuPNmo-45" value="create_exam_from_template()" style="shape=hexagon;whiteSpace=wrap;fillColor=#d5e8d4;" vertex="1" parent="1">
          <mxGeometry x="500" y="240" width="220" height="60" as="geometry" />
        </mxCell>
        <mxCell id="bh20omnAj4xGS9AuPNmo-46" value="Exam Model" style="shape=process;whiteSpace=wrap;fillColor=#e1d5e7;" vertex="1" parent="1">
          <mxGeometry x="500" y="320" width="160" height="50" as="geometry" />
        </mxCell>
        <mxCell id="bh20omnAj4xGS9AuPNmo-47" value="Segment Model" style="shape=process;whiteSpace=wrap;fillColor=#fff2cc;" vertex="1" parent="1">
          <mxGeometry x="400" y="400" width="160" height="50" as="geometry" />
        </mxCell>
        <mxCell id="bh20omnAj4xGS9AuPNmo-48" value="Measurement Model" style="shape=process;whiteSpace=wrap;fillColor=#ffe6cc;" vertex="1" parent="1">
          <mxGeometry x="600" y="400" width="160" height="50" as="geometry" />
        </mxCell>
        <mxCell id="bh20omnAj4xGS9AuPNmo-49" value="ICA/CCA Ratio + Stenosis Logic" style="shape=process;whiteSpace=wrap;fillColor=#f8cecc;" vertex="1" parent="1">
          <mxGeometry x="500" y="480" width="220" height="60" as="geometry" />
        </mxCell>
        <mxCell id="bh20omnAj4xGS9AuPNmo-50" value="Generate Clinical Summary" style="shape=document;whiteSpace=wrap;fillColor=#d5e8d4;" vertex="1" parent="1">
          <mxGeometry x="500" y="560" width="220" height="60" as="geometry" />
        </mxCell>
        <mxCell id="bh20omnAj4xGS9AuPNmo-51" value="ReportConclusion" style="shape=process;whiteSpace=wrap;fillColor=#f8cecc;" vertex="1" parent="1">
          <mxGeometry x="500" y="640" width="180" height="50" as="geometry" />
        </mxCell>
        <mxCell id="bh20omnAj4xGS9AuPNmo-52" style="endArrow=block;" edge="1" parent="1" source="bh20omnAj4xGS9AuPNmo-43" target="bh20omnAj4xGS9AuPNmo-44">
          <mxGeometry relative="1" as="geometry" />
        </mxCell>
        <mxCell id="bh20omnAj4xGS9AuPNmo-53" style="endArrow=block;" edge="1" parent="1" source="bh20omnAj4xGS9AuPNmo-44" target="bh20omnAj4xGS9AuPNmo-45">
          <mxGeometry relative="1" as="geometry" />
        </mxCell>
        <mxCell id="bh20omnAj4xGS9AuPNmo-54" style="endArrow=block;" edge="1" parent="1" source="bh20omnAj4xGS9AuPNmo-45" target="bh20omnAj4xGS9AuPNmo-46">
          <mxGeometry relative="1" as="geometry" />
        </mxCell>
        <mxCell id="bh20omnAj4xGS9AuPNmo-55" style="endArrow=block;" edge="1" parent="1" source="bh20omnAj4xGS9AuPNmo-46" target="bh20omnAj4xGS9AuPNmo-47">
          <mxGeometry relative="1" as="geometry" />
        </mxCell>
        <mxCell id="bh20omnAj4xGS9AuPNmo-56" style="endArrow=block;" edge="1" parent="1" source="bh20omnAj4xGS9AuPNmo-46" target="bh20omnAj4xGS9AuPNmo-48">
          <mxGeometry relative="1" as="geometry" />
        </mxCell>
        <mxCell id="bh20omnAj4xGS9AuPNmo-57" style="endArrow=block;" edge="1" parent="1" source="bh20omnAj4xGS9AuPNmo-46" target="bh20omnAj4xGS9AuPNmo-49">
          <mxGeometry relative="1" as="geometry" />
        </mxCell>
        <mxCell id="bh20omnAj4xGS9AuPNmo-58" style="endArrow=block;" edge="1" parent="1" source="bh20omnAj4xGS9AuPNmo-49" target="bh20omnAj4xGS9AuPNmo-50">
          <mxGeometry relative="1" as="geometry" />
        </mxCell>
        <mxCell id="bh20omnAj4xGS9AuPNmo-59" style="endArrow=block;" edge="1" parent="1" source="bh20omnAj4xGS9AuPNmo-50" target="bh20omnAj4xGS9AuPNmo-51">
          <mxGeometry relative="1" as="geometry" />
        </mxCell>
      </root>
    </mxGraphModel>
  </diagram>
</mxfile>
